<svg viewBox="0 0 100 100" xmlns="http://www.w3.org/2000/svg">
  <!-- Background elements -->
  <rect x="15" y="15" width="70" height="70" rx="8" fill="#1B1C17" stroke="#B7D167" stroke-width="2" />
  
  <!-- Text field representation -->
  <rect x="25" y="30" width="50" height="12" rx="3" fill="#46483C" stroke="#B7D167" stroke-width="1.5" />
  <line x1="30" y1="36" x2="45" y2="36" stroke="#D3EE80" stroke-width="1.5" />
  <circle cx="70" cy="36" r="1.5" fill="#B7D167" />
  
  <!-- Context menu elements -->
  <rect x="42" y="48" width="35" height="28" rx="4" fill="#3C4D00" stroke="#B7D167" stroke-width="1.5" />
  
  <!-- Menu items -->
  <line x1="47" y1="55" x2="72" y2="55" stroke="#D3EE80" stroke-width="1.5" stroke-linecap="round" />
  <line x1="47" y1="62" x2="72" y2="62" stroke="#D3EE80" stroke-width="1.5" stroke-linecap="round" />
  <line x1="47" y1="69" x2="65" y2="69" stroke="#D3EE80" stroke-width="1.5" stroke-linecap="round" />
  
  <!-- Connection element -->
  <path d="M42 48L45 44L48 48" fill="#B7D167" stroke="#B7D167" stroke-width="0.5" />
  
  <!-- Accent circles -->
  <circle cx="25" cy="72" r="3" fill="none" stroke="#A1D0C6" stroke-width="1.5" />
  <circle cx="75" cy="25" r="3" fill="none" stroke="#A1D0C6" stroke-width="1.5" />
  
  <!-- Decorative elements -->
  <line x1="18" y1="25" x2="22" y2="25" stroke="#C4CAA9" stroke-width="1.5" stroke-linecap="round" />
  <line x1="18" y1="30" x2="22" y2="30" stroke="#C4CAA9" stroke-width="1.5" stroke-linecap="round" />
  <line x1="80" y1="72" x2="84" y2="72" stroke="#C4CAA9" stroke-width="1.5" stroke-linecap="round" />
  <line x1="80" y1="77" x2="84" y2="77" stroke="#C4CAA9" stroke-width="1.5" stroke-linecap="round" />
</svg>
